HIERARCHY
ROOT character_B_root
{
	OFFSET 0.000000 0.000000 0.000000
	CHANNELS 6 Xposition Yposition Zposition Xrotation Yrotation Zrotation
	JOINT character_B_pelvis
	{
		OFFSET 0.000000 0.000000 0.000000
		CHANNELS 3 Xrotation Yrotation Zrotation
		JOINT character_B_spine
		{
			OFFSET -0.005949 0.551378 0.000000
			CHANNELS 3 Xrotation Yrotation Zrotation
			JOINT character_B_head
			{
				OFFSET -0.011221 0.241134 0.000000
				CHANNELS 3 Xrotation Yrotation Zrotation
				JOINT character_B_nose
				{
					OFFSET -0.004159 -0.142665 -0.000261
					CHANNELS 3 Xrotation Yrotation Zrotation
					End Site
					{
						OFFSET 0.000000 0.050000 0.000000
					}
				}
			}
			JOINT character_B_left_shoulder
			{
				OFFSET 0.093188 -0.066956 0.092540
				CHANNELS 3 Xrotation Yrotation Zrotation
				JOINT character_B_left_elbow
				{
					OFFSET 0.026481 -0.252143 -0.089385
					CHANNELS 3 Xrotation Yrotation Zrotation
					JOINT character_B_left_wrist
					{
						OFFSET -0.001396 -0.164778 -0.154831
						CHANNELS 3 Xrotation Yrotation Zrotation
						End Site
						{
							OFFSET 0.000000 0.050000 0.000000
						}
					}
				}
			}
			JOINT character_B_right_shoulder
			{
				OFFSET -0.052646 -0.054758 0.152841
				CHANNELS 3 Xrotation Yrotation Zrotation
				JOINT character_B_right_elbow
				{
					OFFSET -0.025750 -0.252567 -0.055740
					CHANNELS 3 Xrotation Yrotation Zrotation
					JOINT character_B_right_wrist
					{
						OFFSET 0.022565 -0.178373 -0.161123
						CHANNELS 3 Xrotation Yrotation Zrotation
						End Site
						{
							OFFSET 0.000000 0.050000 0.000000
						}
					}
				}
			}
		}
		JOINT character_B_left_hip
		{
			OFFSET 0.053047 -0.014449 0.105832
			CHANNELS 3 Xrotation Yrotation Zrotation
			JOINT character_B_left_knee
			{
				OFFSET 0.010852 -0.388560 0.128200
				CHANNELS 3 Xrotation Yrotation Zrotation
				JOINT character_B_left_ankle
				{
					OFFSET -0.005897 -0.374408 0.161260
					CHANNELS 3 Xrotation Yrotation Zrotation
					JOINT character_B_left_big_toe
					{
						OFFSET 0.012109 -0.098215 0.034452
						CHANNELS 3 Xrotation Yrotation Zrotation
						End Site
						{
							OFFSET 0.000000 0.050000 0.000000
						}
					}
					JOINT character_B_left_small_toe
					{
						OFFSET 0.041617 -0.095586 0.019459
						CHANNELS 3 Xrotation Yrotation Zrotation
						End Site
						{
							OFFSET 0.000000 0.050000 0.000000
						}
					}
					JOINT character_B_left_heel
					{
						OFFSET -0.014884 -0.052778 0.025198
						CHANNELS 3 Xrotation Yrotation Zrotation
						End Site
						{
							OFFSET 0.000000 0.050000 0.000000
						}
					}
				}
			}
		}
		JOINT character_B_right_hip
		{
			OFFSET -0.043381 -0.011457 0.270438
			CHANNELS 3 Xrotation Yrotation Zrotation
			JOINT character_B_right_knee
			{
				OFFSET 0.014721 -0.382947 0.164918
				CHANNELS 3 Xrotation Yrotation Zrotation
				JOINT character_B_right_ankle
				{
					OFFSET 0.029970 -0.363014 0.179744
					CHANNELS 3 Xrotation Yrotation Zrotation
					JOINT character_B_right_big_toe
					{
						OFFSET 0.007171 -0.100675 0.041990
						CHANNELS 3 Xrotation Yrotation Zrotation
						End Site
						{
							OFFSET 0.000000 0.050000 0.000000
						}
					}
					JOINT character_B_right_small_toe
					{
						OFFSET -0.022736 -0.093093 0.035638
						CHANNELS 3 Xrotation Yrotation Zrotation
						End Site
						{
							OFFSET 0.000000 0.050000 0.000000
						}
					}
					JOINT character_B_right_heel
					{
						OFFSET 0.012696 -0.052984 0.028899
						CHANNELS 3 Xrotation Yrotation Zrotation
						End Site
						{
							OFFSET 0.000000 0.050000 0.000000
						}
					}
				}
			}
		}
	}
}
MOTION
Frames: 9
Frame Time: 0.03333333
0.000000 0.000000 0.000000 0.000000 0.000000 0.000000 0.167088 0.378035 -1.847842 11.245889 11.442746 10.895918 -13.665546 -9.123785 -37.672645 0.000000 0.000000 -0.000000 -32.928124 -5.988956 -15.732519 -22.514551 15.697330 -4.984466 -0.000000 0.000000 0.000000 -15.848638 -8.414327 -12.017548 -14.479726 24.623102 -23.026336 0.000000 0.000000 0.000000 -5.689354 -6.014474 -17.334650 25.379949 16.634943 19.682433 124.050662 -4.498561 -163.254780 -0.000000 0.000000 0.000000 -0.000000 0.000000 0.000000 -0.000000 0.000000 0.000000 -17.529817 -7.254871 -20.267381 4.303247 22.977715 52.087212 -3.893788 -19.998483 -50.432920 -0.000000 0.000000 -0.000000 -0.000000 0.000000 -0.000000 -0.000000 0.000000 -0.000000
0.000000 0.000000 0.000000 0.000000 0.000000 0.000000 0.167088 0.378035 -1.847842 11.245889 11.442746 10.895918 -13.665547 -9.123786 -37.672632 0.000000 0.000000 -0.000000 -32.928124 -5.988956 -15.732519 -22.514550 15.697332 -4.984468 0.000000 0.000000 -0.000000 -15.801466 -8.421951 -12.039110 -15.497895 24.856243 -22.961972 -0.000000 0.000000 -0.000000 -5.689357 -6.014473 -17.334650 25.379952 16.634944 19.682434 124.836800 -4.494169 -163.051973 -0.000000 0.000000 -0.000000 -0.000000 0.000000 -0.000000 -0.000000 0.000000 -0.000000 -17.529817 -7.254871 -20.267381 4.471693 23.239027 52.250678 -6.579463 -20.294584 -51.455519 0.000000 0.000000 0.000000 0.000000 0.000000 0.000000 0.000000 0.000000 0.000000
0.008378 0.000139 0.190238 0.000000 0.000000 0.000000 -0.080291 0.245101 -1.708994 11.576087 11.254197 10.688469 -13.644333 -8.834496 -38.294469 0.000000 0.000000 0.000000 -32.908407 -5.770211 -15.505274 -22.494276 15.797636 -5.046861 -0.000000 0.000000 0.000000 -15.770254 -8.166530 -11.824841 -16.906241 25.249701 -22.981271 -0.000000 0.000000 0.000000 -4.165962 -6.064848 -17.599160 23.990448 16.582304 20.040606 125.276051 -4.398237 -162.840619 -0.000000 0.000000 -0.000000 -0.000000 0.000000 -0.000000 -0.000000 0.000000 -0.000000 -16.490261 -7.251858 -20.558148 3.744344 23.671991 53.108946 -7.938772 -21.361782 -48.085965 0.000000 0.000000 -0.000000 0.000000 0.000000 -0.000000 0.000000 0.000000 -0.000000
-0.001373 0.001180 0.186916 0.000000 0.000000 0.000000 0.164360 0.264057 -1.833620 11.907212 10.935646 10.717988 -14.148988 -8.419927 -39.017090 0.000000 0.000000 0.000000 -33.409266 -5.423714 -15.259719 -22.501238 15.771884 -5.040676 0.000000 0.000000 0.000000 -16.256974 -7.802662 -11.561719 -17.648876 26.029495 -23.512080 0.000000 0.000000 -0.000000 -3.681448 -6.235873 -17.629443 21.545922 16.309789 21.001263 127.781468 -2.838351 -160.843025 0.000000 0.000000 -0.000000 0.000000 0.000000 -0.000000 0.000000 0.000000 -0.000000 -16.247796 -7.425152 -20.604106 3.372675 23.934051 53.519827 -12.542701 -21.931904 -49.976978 0.000000 0.000000 -0.000000 0.000000 0.000000 -0.000000 0.000000 0.000000 -0.000000
0.036707 0.000795 0.190212 0.000000 0.000000 0.000000 0.479705 -0.005664 -1.808693 11.460601 11.628428 10.691621 -14.118216 -8.860280 -39.520622 -0.000000 0.000000 0.000000 -33.393123 -5.837463 -15.459178 -22.415881 16.171034 -5.272872 -0.000000 0.000000 0.000000 -16.252516 -8.270084 -11.563950 -17.019277 26.739205 -24.346656 0.000000 0.000000 0.000000 -2.953189 -6.403647 -18.594125 18.738416 16.932483 23.256923 129.735437 -1.173824 -158.101426 -0.000000 0.000000 -0.000000 -0.000000 0.000000 -0.000000 -0.000000 0.000000 -0.000000 -16.047482 -7.357734 -20.958510 1.764139 23.203859 54.224253 -6.390024 -21.996481 -40.461272 -0.000000 0.000000 0.000000 -0.000000 0.000000 0.000000 -0.000000 0.000000 0.000000
0.051760 0.000044 -0.161367 0.000000 0.000000 0.000000 0.746713 0.124291 -1.840306 10.928962 12.050680 10.811042 -13.998440 -9.429811 -39.695020 0.000000 0.000000 0.000000 -33.292615 -6.370419 -15.710057 -22.351885 16.467064 -5.452555 -0.000000 0.000000 0.000000 -16.235121 -8.889443 -11.408129 -15.854848 27.355603 -25.346615 0.000000 0.000000 -0.000000 -2.587089 -6.873869 -19.347049 16.247408 17.232624 25.170589 132.444795 1.965538 -154.535522 -0.000000 0.000000 0.000000 -0.000000 0.000000 0.000000 -0.000000 0.000000 0.000000 -16.092442 -7.678839 -21.485246 0.423257 22.641999 55.153441 -4.836811 -16.291243 -31.811551 -0.000000 0.000000 0.000000 -0.000000 0.000000 0.000000 -0.000000 0.000000 0.000000
0.027522 -0.000691 -0.138439 0.000000 0.000000 0.000000 0.769446 0.296829 -1.708814 10.723607 12.320039 10.749520 -13.903707 -9.910830 -39.896952 -0.000000 0.000000 0.000000 -33.216517 -6.824905 -15.909425 -22.304667 16.682837 -5.586366 0.000000 0.000000 0.000000 -16.272732 -9.402521 -11.258107 -14.683310 27.767461 -26.177580 -0.000000 0.000000 -0.000000 -1.238135 -7.531038 -20.353979 13.425896 17.641829 27.302579 133.591410 2.687426 -152.582533 0.000000 0.000000 0.000000 0.000000 0.000000 0.000000 0.000000 0.000000 0.000000 -15.889568 -7.919973 -21.914781 -1.120287 21.455960 55.481558 0.434018 -11.746997 -23.295047 0.000000 0.000000 0.000000 0.000000 0.000000 0.000000 0.000000 0.000000 0.000000
0.018751 -0.001154 -0.105044 0.000000 0.000000 0.000000 0.494362 0.735455 -1.409045 11.144634 11.933047 10.708883 -14.041636 -9.936222 -40.410337 0.000000 0.000000 0.000000 -33.365712 -6.900912 -15.897946 -22.207120 17.133648 -5.887383 0.000000 0.000000 -0.000000 -16.230401 -9.587477 -10.995461 -14.082504 28.338938 -27.116684 0.000000 0.000000 0.000000 2.067217 -8.763593 -21.492084 8.381843 17.371372 29.733857 135.111287 3.119443 -151.731761 0.000000 0.000000 0.000000 0.000000 0.000000 0.000000 0.000000 0.000000 0.000000 -15.028985 -8.358939 -22.311307 -2.679220 20.400154 55.629420 4.082372 -8.196211 -16.938666 -0.000000 0.000000 0.000000 -0.000000 0.000000 0.000000 -0.000000 0.000000 0.000000
0.013183 -0.001389 -0.071166 0.000000 0.000000 0.000000 0.364118 1.193210 -1.405092 11.516298 11.127207 11.008802 -14.237506 -9.484304 -41.243719 -0.000000 0.000000 -0.000000 -33.541804 -6.454396 -15.840743 -22.129772 17.456629 -6.077250 -0.000000 0.000000 -0.000000 -16.278000 -9.302519 -10.608007 -13.757146 28.906394 -27.996484 0.000000 0.000000 -0.000000 4.469441 -9.865757 -22.110105 6.002906 17.734642 31.261022 134.427133 2.323146 -151.822929 -0.000000 0.000000 0.000000 -0.000000 0.000000 0.000000 -0.000000 0.000000 0.000000 -14.213288 -8.897516 -22.358426 -3.976484 19.639540 55.748963 5.829503 -4.913141 -13.267489 -0.000000 0.000000 0.000000 -0.000000 0.000000 0.000000 -0.000000 0.000000 0.000000
